<svg width="66" height="37" viewBox="0 0 66 37" fill="none" xmlns="http://www.w3.org/2000/svg">
  <rect width="66" height="37" rx="4" fill="#5865F2"/>
  <path d="M22 13C20.5 13.7 19.2 14.6 18 15.7C17 13.5 15 12 15 12C15 12 12.5 14.5 12 18.5C12 18.5 13 20 15.5 20.5C15.9 20 16.4 19.5 16.4 19.5C15.3 19.2 14.5 18.5 14.5 18.5C15.3 19 16.2 19.3 17 19.5C17.9 19.7 18.9 19.8 20 19.8C21.1 19.8 22.1 19.7 23 19.5C23.8 19.3 24.7 19 25.5 18.5C25.5 18.5 24.7 19.2 23.6 19.5C23.6 19.5 24.1 20 24.5 20.5C27 20 28 18.5 28 18.5C27.5 14.5 25 12 25 12C25 12 23 13.5 22 13Z" fill="white"/>
  <circle cx="18" cy="17.5" r="1.3" fill="#5865F2"/>
  <circle cx="22" cy="17.5" r="1.3" fill="#5865F2"/>
  <text x="40" y="24" font-family="Arial, sans-serif" font-size="11" font-weight="700" fill="white" text-anchor="middle">Discord</text>
</svg>
