<svg width="66" height="37" viewBox="0 0 66 37" fill="none" xmlns="http://www.w3.org/2000/svg">
  <rect width="66" height="37" rx="4" fill="#25D366"/>
  <path d="M18 11C14.1 11 11 14.1 11 18C11 19.4 11.4 20.7 12.1 21.8L11 26L15.3 24.9C16.4 25.5 17.7 25.9 19 25.9C22.9 25.9 26 22.8 26 18.9C26 15 22.9 11 18 11Z" fill="none" stroke="white" stroke-width="1.5"/>
  <path d="M15 16.5C15.3 16.5 15.7 16.5 15.9 17.2C16.2 18 16.7 19.2 16.8 19.4C16.9 19.6 16.9 19.8 16.8 20C16.7 20.2 16.6 20.4 16.4 20.6C16.2 20.8 16 21 16.2 21.3C16.4 21.6 17.1 22.7 18.1 23.5C19.4 24.5 20.4 24.8 20.7 25C21 25.2 21.2 25.1 21.4 24.9C21.6 24.7 22.2 24 22.5 23.7C22.7 23.4 22.9 23.5 23.2 23.6C23.5 23.7 24.7 24.3 25 24.5C25.3 24.7 25.5 24.8 25.6 24.9C25.7 25.1 25.7 25.6 25.4 26.2" fill="none" stroke="white" stroke-width="1.2"/>
  <text x="42" y="24" font-family="Arial, sans-serif" font-size="9.5" font-weight="700" fill="white" text-anchor="middle">WhatsApp</text>
</svg>
